<svg width="247.54501953125px" height="117.239990234375px" xmlns="http://www.w3.org/2000/svg" viewBox="126.227490234375 16.3800048828125 247.54501953125 117.239990234375" style="background: rgba(0, 0, 0, 0);" preserveAspectRatio="xMidYMid"><defs><filter id="editing-extrude-glow"><feFlood flood-color="rgba(0%,0%,0%,0)" result="flood-1"></feFlood><feMorphology operator="erode" radius="1" in="SourceAlpha" result="erode"></feMorphology><feComposite operator="in" in="flood-1" in2="erode" result="comp1"></feComposite><feConvolveMatrix order="3,3" divisor="1" in="comp1" result="convolve" kernelMatrix="0 0 0 1 1 1 0 0 0"></feConvolveMatrix><feOffset dx="-3" dy="0" in="convolve" result="extrude"></feOffset><feComposite operator="in" in="flood-1" in2="extrude" result="comp-extrude"></feComposite><feFlood flood-color="rgba(0%,0%,0%,0)" result="flood-2"></feFlood><feComposite operator="in" in="flood-2" in2="SourceAlpha" result="comp2"></feComposite><feMorphology operator="dilate" radius="1" in="comp2" result="dilate"></feMorphology><feOffset dx="-4.5" dy="0" in="dilate" result="offset"></feOffset><feGaussianBlur in="offset" stdDeviation="5.8" result="blur"></feGaussianBlur><feComponentTransfer in="blur" result="shadow"><feFuncA type="linear" slope="0.8" intercept="-0.2"></feFuncA></feComponentTransfer><feMerge><feMergeNode in="shadow"></feMergeNode><feMergeNode in="comp-extrude"></feMergeNode><feMergeNode in="SourceGraphic"></feMergeNode></feMerge></filter></defs><g filter="url(#editing-extrude-glow)"><g transform="translate(167.28000020980835, 100.18000030517578)"><path d="M39.42-33.15L39.42-33.15Q39.49-32.96 39.49-32.58L39.49-32.58L39.49-17.54L39.49-17.54Q39.49-12.54 37.15-8.45L37.15-8.45L37.15-8.45Q34.82-4.35 30.75-2.02L30.75-2.02L30.75-2.02Q26.69 0.32 21.70 0.32L21.70 0.32L21.70 0.32Q16.70 0.32 12.64-2.02L12.64-2.02L12.64-2.02Q8.58-4.35 6.24-8.45L6.24-8.45L6.24-8.45Q3.90-12.54 3.90-17.54L3.90-17.54L3.90-17.54Q3.90-22.53 6.18-26.59L6.18-26.59L6.18-26.59Q8.45-30.66 12.38-32.99L12.38-32.99L12.38-32.99Q16.32-35.33 21.18-35.33L21.18-35.33L21.18-35.33Q25.34-35.33 28.80-33.57L28.80-33.57L28.80-33.57Q32.26-31.81 34.50-28.74L34.50-28.74L34.50-47.49L34.50-47.49Q34.50-48.58 35.20-49.28L35.20-49.28L35.20-49.28Q35.90-49.98 36.99-49.98L36.99-49.98L36.99-49.98Q38.08-49.98 38.75-49.28L38.75-49.28L38.75-49.28Q39.42-48.58 39.42-47.49L39.42-47.49L39.42-33.15ZM21.70-4.16L21.70-4.16Q25.34-4.16 28.29-5.92L28.29-5.92L28.29-5.92Q31.23-7.68 32.93-10.72L32.93-10.72L32.93-10.72Q34.62-13.76 34.62-17.54L34.62-17.54L34.62-17.54Q34.62-18.62 34.56-19.14L34.56-19.14L34.56-19.14Q34.50-19.26 34.50-19.46L34.50-19.46L34.50-19.46Q33.86-24.45 30.30-27.65L30.30-27.65L30.30-27.65Q26.75-30.85 21.70-30.85L21.70-30.85L21.70-30.85Q18.05-30.85 15.07-29.12L15.07-29.12L15.07-29.12Q12.10-27.39 10.40-24.35L10.40-24.35L10.40-24.35Q8.70-21.31 8.70-17.54L8.70-17.54L8.70-17.54Q8.70-13.76 10.40-10.72L10.40-10.72L10.40-10.72Q12.10-7.68 15.07-5.92L15.07-5.92L15.07-5.92Q18.05-4.16 21.70-4.16L21.70-4.16ZM80.32-35.01L80.32-35.01Q81.41-35.01 82.11-34.34L82.11-34.34L82.11-34.34Q82.82-33.66 82.82-32.58L82.82-32.58L82.82-2.50L82.82-2.50Q82.82-1.41 82.11-0.70L82.11-0.70L82.11-0.70Q81.41 0 80.32 0L80.32 0L80.32 0Q79.23 0 78.56-0.70L78.56-0.70L78.56-0.70Q77.89-1.41 77.89-2.50L77.89-2.50L77.89-4.67L77.89-4.67Q75.78-2.30 72.77-0.96L72.77-0.96L72.77-0.96Q69.76 0.38 66.24 0.38L66.24 0.38L66.24 0.38Q61.70 0.38 58.08-1.54L58.08-1.54L58.08-1.54Q54.46-3.46 52.42-7.14L52.42-7.14L52.42-7.14Q50.37-10.82 50.37-15.94L50.37-15.94L50.37-32.58L50.37-32.58Q50.37-33.60 51.07-34.30L51.07-34.30L51.07-34.30Q51.78-35.01 52.80-35.01L52.80-35.01L52.80-35.01Q53.89-35.01 54.59-34.30L54.59-34.30L54.59-34.30Q55.30-33.60 55.30-32.58L55.30-32.58L55.30-15.94L55.30-15.94Q55.30-10.24 58.46-7.26L58.46-7.26L58.46-7.26Q61.63-4.29 66.75-4.29L66.75-4.29L66.75-4.29Q69.89-4.29 72.42-5.50L72.42-5.50L72.42-5.50Q74.94-6.72 76.42-8.86L76.42-8.86L76.42-8.86Q77.89-11.01 77.89-13.63L77.89-13.63L77.89-32.58L77.89-32.58Q77.89-33.66 78.56-34.34L78.56-34.34L78.56-34.34Q79.23-35.01 80.32-35.01L80.32-35.01ZM106.43-35.33L106.43-35.33Q110.66-35.33 113.79-33.89L113.79-33.89L113.79-33.89Q116.93-32.45 118.85-29.89L118.85-29.89L118.85-29.89Q119.36-29.06 119.36-28.42L119.36-28.42L119.36-28.42Q119.36-27.33 118.34-26.69L118.34-26.69L118.34-26.69Q117.89-26.37 117.12-26.37L117.12-26.37L117.12-26.37Q115.78-26.37 114.88-27.33L114.88-27.33L114.88-27.33Q111.74-30.91 106.30-30.91L106.30-30.91L106.30-30.91Q102.78-30.91 100.67-29.47L100.67-29.47L100.67-29.47Q98.56-28.03 98.56-25.86L98.56-25.86L98.56-25.86Q98.56-23.55 100.54-22.18L100.54-22.18L100.54-22.18Q102.53-20.80 107.58-19.97L107.58-19.97L107.58-19.97Q114.43-18.82 117.38-16.22L117.38-16.22L117.38-16.22Q120.32-13.63 120.32-9.79L120.32-9.79L120.32-9.79Q120.32-6.85 118.56-4.54L118.56-4.54L118.56-4.54Q116.80-2.24 113.66-0.96L113.66-0.96L113.66-0.96Q110.53 0.32 106.56 0.32L106.56 0.32L106.56 0.32Q102.59 0.32 98.94-1.02L98.94-1.02L98.94-1.02Q95.30-2.37 93.06-4.80L93.06-4.80L93.06-4.80Q92.42-5.57 92.42-6.27L92.42-6.27L92.42-6.27Q92.42-7.36 93.44-8.19L93.44-8.19L93.44-8.19Q94.21-8.77 95.04-8.77L95.04-8.77L95.04-8.77Q96.13-8.77 96.90-7.87L96.90-7.87L96.90-7.87Q98.43-6.08 100.96-5.12L100.96-5.12L100.96-5.12Q103.49-4.16 106.56-4.16L106.56-4.16L106.56-4.16Q111.04-4.16 113.28-5.70L113.28-5.70L113.28-5.70Q115.52-7.23 115.58-9.73L115.58-9.73L115.58-9.73Q115.58-12.03 113.34-13.57L113.34-13.57L113.34-13.57Q111.10-15.10 106.24-15.87L106.24-15.87L106.24-15.87Q99.97-16.90 96.86-19.42L96.86-19.42L96.86-19.42Q93.76-21.95 93.76-25.54L93.76-25.54L93.76-25.54Q93.76-30.21 97.38-32.77L97.38-32.77L97.38-32.77Q100.99-35.33 106.43-35.33L106.43-35.33ZM144.26-4.93L144.26-4.93Q145.28-4.93 145.92-4.22L145.92-4.22L145.92-4.22Q146.56-3.52 146.56-2.43L146.56-2.43L146.56-2.43Q146.56-1.41 145.79-0.70L145.79-0.70L145.79-0.70Q145.02 0 143.87 0L143.87 0L142.53 0L142.53 0Q139.14 0 136.45-1.63L136.45-1.63L136.45-1.63Q133.76-3.26 132.26-6.05L132.26-6.05L132.26-6.05Q130.75-8.83 130.75-12.35L130.75-12.35L130.75-29.44L126.59-29.44L126.59-29.44Q125.57-29.44 124.96-30.05L124.96-30.05L124.96-30.05Q124.35-30.66 124.35-31.55L124.35-31.55L124.35-31.55Q124.35-32.51 124.96-33.12L124.96-33.12L124.96-33.12Q125.57-33.73 126.59-33.73L126.59-33.73L130.75-33.73L130.75-43.65L130.75-43.65Q130.75-44.74 131.42-45.44L131.42-45.44L131.42-45.44Q132.10-46.14 133.18-46.14L133.18-46.14L133.18-46.14Q134.27-46.14 134.98-45.44L134.98-45.44L134.98-45.44Q135.68-44.74 135.68-43.65L135.68-43.65L135.68-33.73L142.91-33.73L142.91-33.73Q143.94-33.73 144.54-33.12L144.54-33.12L144.54-33.12Q145.15-32.51 145.15-31.55L145.15-31.55L145.15-31.55Q145.15-30.66 144.54-30.05L144.54-30.05L144.54-30.05Q143.94-29.44 142.91-29.44L142.91-29.44L135.68-29.44L135.68-12.35L135.68-12.35Q135.68-9.09 137.60-7.01L137.60-7.01L137.60-7.01Q139.52-4.93 142.53-4.93L142.53-4.93L144.26-4.93ZM155.58-32.51L155.58-32.51Q155.58-33.60 156.29-34.30L156.29-34.30L156.29-34.30Q156.99-35.01 158.08-35.01L158.08-35.01L158.08-35.01Q159.17-35.01 159.84-34.30L159.84-34.30L159.84-34.30Q160.51-33.60 160.51-32.51L160.51-32.51L160.51-2.50L160.51-2.50Q160.51-1.41 159.84-0.70L159.84-0.70L159.84-0.70Q159.17 0 158.08 0L158.08 0L158.08 0Q156.99 0 156.29-0.70L156.29-0.70L156.29-0.70Q155.58-1.41 155.58-2.50L155.58-2.50L155.58-32.51ZM158.08-48.64L158.08-48.64Q159.49-48.64 160.51-47.68L160.51-47.68L160.51-47.68Q161.54-46.72 161.54-45.18L161.54-45.18L161.54-45.18Q161.54-43.71 160.51-42.69L160.51-42.69L160.51-42.69Q159.49-41.66 158.02-41.66L158.02-41.66L158.02-41.66Q156.54-41.66 155.55-42.69L155.55-42.69L155.55-42.69Q154.56-43.71 154.56-45.18L154.56-45.18L154.56-45.18Q154.56-46.72 155.58-47.68L155.58-47.68L155.58-47.68Q156.61-48.64 158.08-48.64L158.08-48.64Z" fill="#313131"></path></g></g><style>text {
  font-size: 64px;
  font-family: Arial Black;
  dominant-baseline: central;
  text-anchor: middle;
}</style></svg>